# File created by Blade
# Date/Time:  Thu Sep 25 15:31:15 2014
# Frame Rate: 120.000 fps
#------------------------------------------------------
:FULLY-SPECIFIED
:DEGREES
295
root 27.588078 32.639491 -1.473711 161.273967 -75.302135 -141.448061
Spine 3.142092 12.403086 5.510899
Head -1.575458 -3.448433 4.054128
LeftShoulder -4.376513 18.088094 12.316152
LeftArm 29.650033 13.775734 -55.194116
LeftForeArm 4.342680 0.000000 17.031156
LeftHand -26.522311 -0.000000 3.308260
LeftHandThumb1 -26.253704 0.000000 33.147579
RightShoulder -8.233987 17.409157 -22.899032
RightArm 2.102875 -31.840846 76.517156
RightForeArm -27.733510 -0.000000 15.375013
RightHand -2.455900 -0.000000 3.328778
RightHandThumb1 -24.326973 -0.000000 -32.862282
LeftUpLeg -52.893833 13.139078 1.373800
LeftLeg 35.040177 -0.000000 -0.000000
LeftFoot -4.756810 15.230806 -22.243830
LeftToeBase -1.344658 -0.000000 0.000000
RightUpLeg -18.024802 -6.274742 16.626077
RightLeg 5.526050 -0.000000 -0.000000
RightFoot -10.858858 -6.988053 -6.988913
RightToeBase 1.310138 -0.000000 -0.000000
296
root 27.655321 32.634264 -1.497043 161.219306 -75.307089 -141.272852
Spine 3.302272 12.384015 5.593586
Head -1.774872 -3.403733 3.918649
LeftShoulder -4.124153 17.923025 12.166960
LeftArm 30.041978 13.851142 -54.734937
LeftForeArm 4.150509 -0.000000 17.068372
LeftHand -26.336325 -0.000000 3.673119
LeftHandThumb1 -26.253704 0.000000 33.147579
RightShoulder -7.949297 17.494860 -22.709043
RightArm 2.644101 -31.877327 76.105139
RightForeArm -27.772212 -0.000000 15.369105
RightHand -2.351209 -0.000000 3.438480
RightHandThumb1 -24.326973 -0.000000 -32.862282
LeftUpLeg -53.195099 13.166811 1.155355
LeftLeg 33.682903 -0.000000 -0.000000
LeftFoot -3.036865 14.834577 -21.565326
LeftToeBase -1.442076 -0.000000 0.000000
RightUpLeg -18.228623 -6.201317 16.753155
RightLeg 5.495430 -0.000000 -0.000000
RightFoot -10.769375 -7.049953 -7.105480
RightToeBase 1.308543 -0.000000 -0.000000
297
root 27.717314 32.628530 -1.522989 161.102889 -75.303464 -141.066584
Spine 3.504729 12.339218 5.668376
Head -2.027222 -3.347620 3.859280
LeftShoulder -3.895284 17.688908 12.047668
LeftArm 30.369729 13.851799 -54.376516
LeftForeArm 4.257314 0.000000 17.097551
LeftHand -26.308306 -0.000000 3.561047
LeftHandThumb1 -26.253704 0.000000 33.147579
RightShoulder -7.686944 17.693617 -22.473906
RightArm 3.126299 -32.028627 75.663474
RightForeArm -27.717531 -0.000000 15.430400
RightHand -2.266529 -0.000000 3.709887
RightHandThumb1 -24.326973 -0.000000 -32.862282
LeftUpLeg -53.408579 13.122408 1.072198
LeftLeg 32.306383 -0.000000 -0.000000
LeftFoot -1.339350 14.627797 -20.884592
LeftToeBase -1.512493 -0.000000 0.000000
RightUpLeg -18.397989 -6.177218 16.899034
RightLeg 5.479349 -0.000000 -0.000000
RightFoot -10.697971 -7.063831 -7.227699
RightToeBase 1.311250 -0.000000 -0.000000
298
root 27.779792 32.622241 -1.550346 160.892563 -75.289922 -140.771902
Spine 3.724473 12.323238 5.773471
Head -2.271875 -3.289629 3.806267
LeftShoulder -3.602778 17.427098 11.951519
LeftArm 30.650633 13.888080 -54.019210
LeftForeArm 4.297520 0.000000 17.199846
LeftHand -26.175613 0.000000 3.491666
LeftHandThumb1 -26.253704 0.000000 33.147579
RightShoulder -7.405266 17.808425 -22.221918
RightArm 3.704096 -32.162925 75.187542
RightForeArm -27.652897 -0.000000 15.406477
RightHand -2.258950 -0.000000 3.598978
RightHandThumb1 -24.326973 -0.000000 -32.862282
LeftUpLeg -53.563709 13.026012 1.083365
LeftLeg 30.914619 -0.000000 -0.000000
LeftFoot 0.451062 14.815592 -20.651904
LeftToeBase -0.851154 -0.000000 0.000000
RightUpLeg -18.530439 -6.049262 17.040803
RightLeg 5.413711 -0.000000 -0.000000
RightFoot -10.578776 -7.167450 -7.333891
RightToeBase 1.334217 -0.000000 -0.000000
299
root 27.837623 32.614746 -1.574656 160.800446 -75.271585 -140.630863
Spine 3.987910 12.308087 5.844591
Head -2.557305 -3.232357 3.748205
LeftShoulder -3.365762 17.279493 11.832317
LeftArm 31.140585 13.954821 -53.548927
LeftForeArm 4.244139 -0.000000 17.177751
LeftHand -26.015804 -0.000000 3.493374
LeftHandThumb1 -26.253704 0.000000 33.147579
RightShoulder -7.135543 18.004903 -21.976615
RightArm 4.249249 -32.254125 74.747802
RightForeArm -27.722026 -0.000000 15.366563
RightHand -2.169696 -0.000000 3.618949
RightHandThumb1 -24.326973 -0.000000 -32.862282
LeftUpLeg -53.629177 12.882420 1.131332
LeftLeg 29.482673 -0.000000 -0.000000
LeftFoot 2.311537 15.199131 -20.695535
LeftToeBase -0.529922 -0.000000 0.000000
RightUpLeg -18.634805 -5.929520 17.138137
RightLeg 5.365588 -0.000000 -0.000000
RightFoot -10.491276 -7.252808 -7.411144
RightToeBase 1.232195 -0.000000 -0.000000
300
root 27.894401 32.606159 -1.597938 160.631991 -75.248367 -140.427412
Spine 4.240015 12.223854 5.939435
Head -2.721640 -3.134704 3.689603
LeftShoulder -3.022402 16.917600 11.803532
LeftArm 31.255058 14.038608 -53.306291
LeftForeArm 4.209404 -0.000000 17.255820
LeftHand -26.014805 -0.000000 3.476874
LeftHandThumb1 -26.253704 0.000000 33.147579
RightShoulder -6.689142 18.154590 -21.670199
RightArm 4.807802 -32.382939 74.210571
RightForeArm -27.433020 -0.000000 15.410203
RightHand -2.183864 -0.000000 3.767757
RightHandThumb1 -24.326973 -0.000000 -32.862282
LeftUpLeg -53.657522 12.758028 1.193027
LeftLeg 28.026516 -0.000000 -0.000000
LeftFoot 4.114939 15.667891 -20.945540
LeftToeBase -0.009028 -0.000000 0.000000
RightUpLeg -18.703130 -5.709285 17.219315
RightLeg 5.288152 -0.000000 -0.000000
RightFoot -10.404674 -7.472801 -7.459928
RightToeBase 1.124072 -0.000000 -0.000000
301
root 27.946514 32.598218 -1.623567 160.448410 -75.236797 -140.191536
Spine 4.511113 12.205203 6.013868
Head -3.023081 -3.100493 3.693797
LeftShoulder -2.720101 16.647795 11.713901
LeftArm 31.580474 14.109107 -52.914508
LeftForeArm 4.297752 -0.000000 17.314869
LeftHand -25.986982 -0.000000 3.384801
LeftHandThumb1 -26.253704 0.000000 33.147579
RightShoulder -6.432912 18.348324 -21.369338
RightArm 5.329405 -32.549409 73.726294
RightForeArm -27.623991 -0.000000 15.437311
RightHand -2.077625 0.000000 3.581888
RightHandThumb1 -24.326973 -0.000000 -32.862282
LeftUpLeg -53.644963 12.598660 1.296820
LeftLeg 26.514459 -0.000000 -0.000000
LeftFoot 5.843620 16.159111 -21.473771
LeftToeBase 0.944964 -0.000000 -0.000000
RightUpLeg -18.794395 -5.550839 17.320592
RightLeg 5.235111 -0.000000 -0.000000
RightFoot -10.314354 -7.646455 -7.559741
RightToeBase 0.978997 -0.000000 -0.000000
302
root 28.014474 32.590430 -1.647077 160.490331 -75.138125 -140.118471
Spine 4.745276 12.297815 6.045926
Head -3.340152 -3.049844 3.737744
LeftShoulder -2.381851 16.162340 11.722180
LeftArm 31.795314 14.349539 -52.575319
LeftForeArm 4.238330 -0.000000 17.323945
LeftHand -25.898542 -0.000000 3.381787
LeftHandThumb1 -26.253704 0.000000 33.147579
RightShoulder -6.118002 18.534742 -21.071159
RightArm 5.874466 -32.713465 73.220923
RightForeArm -27.588183 -0.000000 15.470291
RightHand -2.028427 -0.000000 3.497344
RightHandThumb1 -24.326973 -0.000000 -32.862282
LeftUpLeg -53.717870 12.567363 1.359007
LeftLeg 25.039051 -0.000000 -0.000000
LeftFoot 7.561130 16.654938 -21.952474
LeftToeBase 1.459962 -0.000000 -0.000000
RightUpLeg -19.009325 -5.257434 17.415330
RightLeg 5.290587 -0.000000 -0.000000
RightFoot -10.239660 -7.804063 -7.588124
RightToeBase 0.985444 -0.000000 -0.000000
303
root 28.071568 32.582068 -1.669462 160.490386 -75.063276 -140.039454
Spine 4.986094 12.335317 6.085545
Head -3.618904 -2.991388 3.759462
LeftShoulder -2.027431 15.916229 11.660004
LeftArm 32.137808 14.442775 -52.143467
LeftForeArm 4.293524 -0.000000 17.355183
LeftHand -25.675919 -0.000000 3.694228
LeftHandThumb1 -26.253704 0.000000 33.147579
RightShoulder -5.779627 18.672663 -20.722647
RightArm 6.511399 -32.877477 72.622281
RightForeArm -27.351909 0.000000 15.476331
RightHand -1.941848 -0.000000 3.482911
RightHandThumb1 -24.326973 -0.000000 -32.862282
LeftUpLeg -53.716780 12.537926 1.397387
LeftLeg 23.582079 -0.000000 -0.000000
LeftFoot 8.909785 16.822761 -22.053625
LeftToeBase 1.496565 -0.000000 -0.000000
RightUpLeg -19.153447 -5.051305 17.507974
RightLeg 5.287451 -0.000000 -0.000000
RightFoot -10.166362 -7.881352 -7.673847
RightToeBase 1.264353 -0.000000 -0.000000
304
root 28.125930 32.574118 -1.694415 160.377331 -74.985136 -139.836449
Spine 5.217725 12.369588 6.160290
Head -3.865950 -2.949305 3.784310
LeftShoulder -1.685775 15.508852 11.593081
LeftArm 32.395088 14.705399 -51.694161
LeftForeArm 4.299657 -0.000000 17.363781
LeftHand -25.690784 0.000000 3.606579
LeftHandThumb1 -26.253704 0.000000 33.147579
RightShoulder -5.408414 18.807556 -20.368051
RightArm 7.076135 -32.934681 72.070621
RightForeArm -27.406594 0.000000 15.524259
RightHand -1.977736 -0.000000 3.391085
RightHandThumb1 -24.326973 -0.000000 -32.862282
LeftUpLeg -53.709802 12.521106 1.461298
LeftLeg 22.201771 -0.000000 -0.000000
LeftFoot 9.811783 16.658671 -21.774163
LeftToeBase 1.557802 -0.000000 -0.000000
RightUpLeg -19.304046 -4.904924 17.657229
RightLeg 5.305311 -0.000000 -0.000000
RightFoot -10.098423 -7.963923 -7.709130
RightToeBase 1.290997 -0.000000 -0.000000
